
<svg width="30" height="30" viewBox="0 0 30 30" fill="none" xmlns="http://www.w3.org/2000/svg">
<path fill-rule="evenodd" clip-rule="evenodd" d="M24.3703 28.9693C23.7064 29.6332 22.63 29.6332 21.9661 28.9693L17.1568 24.16C16.9646 23.9677 16.8212 23.7321 16.7388 23.473L14.4822 16.376L7.42598 18.6197L2.88046 23.1652L7.05876 27.3435L11.7764 22.6259C12.1669 22.2354 12.8001 22.2354 13.1906 22.6259C13.5811 23.0164 13.5811 23.6496 13.1906 24.0401L8.26084 28.9699C7.59695 29.6338 6.52057 29.6338 5.85668 28.9699L1.25411 24.3673C0.590221 23.7034 0.590223 22.627 1.25411 21.9631L6.0634 17.1538C6.25566 16.9616 6.49123 16.8182 6.75034 16.7359L13.8762 14.4701L11.6496 7.46776L7.06175 2.87986L2.88345 7.05816L7.64346 11.8182C8.03399 12.2087 8.03399 12.8419 7.64346 13.2324C7.25294 13.6229 6.61977 13.6229 6.22925 13.2324L1.2571 8.26024C0.593211 7.59635 0.59321 6.51997 1.2571 5.85608L5.85967 1.25351C6.52356 0.58962 7.59994 0.589622 8.26383 1.25351L13.1155 6.10518C13.3078 6.29744 13.4511 6.53301 13.5335 6.79212L15.7821 13.864L22.7556 11.6467L27.3435 7.05876L23.1652 2.88046L18.4052 7.64048C18.0147 8.031 17.3815 8.031 16.991 7.64048C16.6005 7.24995 16.6005 6.61679 16.991 6.22626L21.9631 1.25411C22.627 0.590222 23.7034 0.590222 24.3673 1.25411L28.9699 5.85668C29.6338 6.52057 29.6338 7.59695 28.9699 8.26084L24.1182 13.1125C23.9259 13.3048 23.6904 13.4481 23.4312 13.5305L16.3882 15.77L18.6227 22.7974L23.1682 27.3429L27.3465 23.1646L22.6289 18.447C22.2383 18.0565 22.2383 17.4233 22.6289 17.0328C23.0194 16.6422 23.6526 16.6422 24.0431 17.0328L28.9729 21.9625C29.6367 22.6264 29.6367 23.7028 28.9729 24.3667L24.3703 28.9693Z" fill="url(#paint0_linear_390_20828)"/>
<defs>
<linearGradient id="paint0_linear_390_20828" x1="15.079" y1="38.1922" x2="15.079" y2="-7.89745" gradientUnits="userSpaceOnUse">
<stop stop-color="#5E00FF"/>
<stop offset="1" stop-color="#CB00FF"/>
</linearGradient>
</defs>
</svg>
